<?xml version="1.0" encoding="UTF-8" standalone="no"?>
<!DOCTYPE svg PUBLIC "-//W3C//DTD SVG 1.1//EN"
 "http://www.w3.org/Graphics/SVG/1.1/DTD/svg11.dtd">
<!-- Generated by graphviz version 2.43.0 (0)
 -->
<!-- Title: %3 Pages: 1 -->
<svg width="499pt" height="314pt"
 viewBox="0.00 0.00 499.00 314.00" xmlns="http://www.w3.org/2000/svg" xmlns:xlink="http://www.w3.org/1999/xlink">
<g id="graph0" class="graph" transform="scale(1 1) rotate(0) translate(4 310)">
<title>%3</title>
<polygon fill="white" stroke="transparent" points="-4,4 -4,-310 495,-310 495,4 -4,4"/>
<!-- fictitious -->
<g id="node1" class="node">
<title>fictitious</title>
<ellipse fill="black" stroke="black" cx="0" cy="-92" rx="0" ry="0"/>
</g>
<!-- 0 -->
<g id="node2" class="node">
<title>0</title>
<ellipse fill="red" stroke="black" cx="64" cy="-92" rx="27" ry="18"/>
<text text-anchor="middle" x="64" y="-88.3" font-family="Times,serif" font-size="14.00">0</text>
</g>
<!-- fictitious&#45;&gt;0 -->
<g id="edge1" class="edge">
<title>fictitious&#45;&gt;0</title>
<path fill="none" stroke="black" d="M1.04,-92C1.86,-92 13.73,-92 26.87,-92"/>
<polygon fill="black" stroke="black" points="27,-95.5 37,-92 27,-88.5 27,-95.5"/>
</g>
<!-- 5 -->
<g id="node6" class="node">
<title>5</title>
<ellipse fill="none" stroke="black" cx="164" cy="-119" rx="27" ry="18"/>
<text text-anchor="middle" x="164" y="-115.3" font-family="Times,serif" font-size="14.00">5</text>
</g>
<!-- 0&#45;&gt;5 -->
<g id="edge2" class="edge">
<title>0&#45;&gt;5</title>
<path fill="none" stroke="black" d="M89.22,-98.67C101.24,-101.98 115.95,-106.04 129.07,-109.65"/>
<polygon fill="black" stroke="black" points="128.14,-113.03 138.71,-112.31 130,-106.28 128.14,-113.03"/>
<text text-anchor="middle" x="114" y="-109.8" font-family="Times,serif" font-size="14.00">b</text>
</g>
<!-- 1 -->
<g id="node13" class="node">
<title>1</title>
<ellipse fill="none" stroke="black" cx="164" cy="-65" rx="27" ry="18"/>
<text text-anchor="middle" x="164" y="-61.3" font-family="Times,serif" font-size="14.00">1</text>
</g>
<!-- 0&#45;&gt;1 -->
<g id="edge11" class="edge">
<title>0&#45;&gt;1</title>
<path fill="none" stroke="black" d="M89.22,-85.33C101.24,-82.02 115.95,-77.96 129.07,-74.35"/>
<polygon fill="black" stroke="black" points="130,-77.72 138.71,-71.69 128.14,-70.97 130,-77.72"/>
<text text-anchor="middle" x="114" y="-82.8" font-family="Times,serif" font-size="14.00">a</text>
</g>
<!-- 3 -->
<g id="node3" class="node">
<title>3</title>
<ellipse fill="red" stroke="black" cx="364" cy="-38" rx="27" ry="18"/>
<text text-anchor="middle" x="364" y="-34.3" font-family="Times,serif" font-size="14.00">3</text>
</g>
<!-- 4 -->
<g id="node15" class="node">
<title>4</title>
<ellipse fill="none" stroke="black" cx="464" cy="-18" rx="27" ry="18"/>
<text text-anchor="middle" x="464" y="-14.3" font-family="Times,serif" font-size="14.00">4</text>
</g>
<!-- 3&#45;&gt;4 -->
<g id="edge14" class="edge">
<title>3&#45;&gt;4</title>
<path fill="none" stroke="black" d="M389.98,-32.9C401.5,-30.55 415.37,-27.72 427.92,-25.16"/>
<polygon fill="black" stroke="black" points="428.96,-28.52 438.06,-23.09 427.56,-21.66 428.96,-28.52"/>
<text text-anchor="middle" x="414" y="-31.8" font-family="Times,serif" font-size="14.00">a</text>
</g>
<!-- 9 -->
<g id="node4" class="node">
<title>9</title>
<ellipse fill="red" stroke="black" cx="464" cy="-126" rx="27" ry="18"/>
<text text-anchor="middle" x="464" y="-122.3" font-family="Times,serif" font-size="14.00">9</text>
</g>
<!-- 12 -->
<g id="node5" class="node">
<title>12</title>
<ellipse fill="red" stroke="black" cx="464" cy="-288" rx="27" ry="18"/>
<text text-anchor="middle" x="464" y="-284.3" font-family="Times,serif" font-size="14.00">12</text>
</g>
<!-- 6 -->
<g id="node7" class="node">
<title>6</title>
<ellipse fill="none" stroke="black" cx="264" cy="-119" rx="27" ry="18"/>
<text text-anchor="middle" x="264" y="-115.3" font-family="Times,serif" font-size="14.00">6</text>
</g>
<!-- 5&#45;&gt;6 -->
<g id="edge3" class="edge">
<title>5&#45;&gt;6</title>
<path fill="none" stroke="black" d="M191,-119C201.97,-119 214.92,-119 226.79,-119"/>
<polygon fill="black" stroke="black" points="226.87,-122.5 236.87,-119 226.87,-115.5 226.87,-122.5"/>
<text text-anchor="middle" x="214" y="-122.8" font-family="Times,serif" font-size="14.00">b</text>
</g>
<!-- 8 -->
<g id="node8" class="node">
<title>8</title>
<ellipse fill="none" stroke="black" cx="364" cy="-186" rx="27" ry="18"/>
<text text-anchor="middle" x="364" y="-182.3" font-family="Times,serif" font-size="14.00">8</text>
</g>
<!-- 6&#45;&gt;8 -->
<g id="edge4" class="edge">
<title>6&#45;&gt;8</title>
<path fill="none" stroke="black" d="M283.43,-131.6C298.26,-141.74 319.3,-156.12 336.02,-167.56"/>
<polygon fill="black" stroke="black" points="334.09,-170.47 344.32,-173.23 338.04,-164.69 334.09,-170.47"/>
<text text-anchor="middle" x="314" y="-157.8" font-family="Times,serif" font-size="14.00">a</text>
</g>
<!-- 7 -->
<g id="node11" class="node">
<title>7</title>
<ellipse fill="none" stroke="black" cx="364" cy="-119" rx="27" ry="18"/>
<text text-anchor="middle" x="364" y="-115.3" font-family="Times,serif" font-size="14.00">7</text>
</g>
<!-- 6&#45;&gt;7 -->
<g id="edge8" class="edge">
<title>6&#45;&gt;7</title>
<path fill="none" stroke="black" d="M291,-119C301.97,-119 314.92,-119 326.79,-119"/>
<polygon fill="black" stroke="black" points="326.87,-122.5 336.87,-119 326.87,-115.5 326.87,-122.5"/>
<text text-anchor="middle" x="314" y="-122.8" font-family="Times,serif" font-size="14.00">b</text>
</g>
<!-- 8&#45;&gt;12 -->
<g id="edge5" class="edge">
<title>8&#45;&gt;12</title>
<path fill="none" stroke="black" d="M379.34,-200.95C393.86,-216.09 416.98,-240.18 437,-261 438.54,-262.6 440.13,-264.25 441.73,-265.92"/>
<polygon fill="black" stroke="black" points="439.23,-268.37 448.69,-273.15 444.28,-263.52 439.23,-268.37"/>
<text text-anchor="middle" x="414" y="-243.8" font-family="Times,serif" font-size="14.00">b</text>
</g>
<!-- 13 -->
<g id="node9" class="node">
<title>13</title>
<ellipse fill="none" stroke="black" cx="464" cy="-234" rx="27" ry="18"/>
<text text-anchor="middle" x="464" y="-230.3" font-family="Times,serif" font-size="14.00">13</text>
</g>
<!-- 8&#45;&gt;13 -->
<g id="edge6" class="edge">
<title>8&#45;&gt;13</title>
<path fill="none" stroke="black" d="M386.26,-196.42C399.75,-203.02 417.41,-211.67 432.39,-219.01"/>
<polygon fill="black" stroke="black" points="431.26,-222.35 441.78,-223.61 434.34,-216.06 431.26,-222.35"/>
<text text-anchor="middle" x="414" y="-214.8" font-family="Times,serif" font-size="14.00">b</text>
</g>
<!-- 11 -->
<g id="node10" class="node">
<title>11</title>
<ellipse fill="none" stroke="black" cx="464" cy="-180" rx="27" ry="18"/>
<text text-anchor="middle" x="464" y="-176.3" font-family="Times,serif" font-size="14.00">11</text>
</g>
<!-- 8&#45;&gt;11 -->
<g id="edge7" class="edge">
<title>8&#45;&gt;11</title>
<path fill="none" stroke="black" d="M391,-184.41C401.97,-183.74 414.92,-182.94 426.79,-182.22"/>
<polygon fill="black" stroke="black" points="427.11,-185.7 436.87,-181.6 426.68,-178.72 427.11,-185.7"/>
<text text-anchor="middle" x="414" y="-186.8" font-family="Times,serif" font-size="14.00">a</text>
</g>
<!-- 7&#45;&gt;9 -->
<g id="edge9" class="edge">
<title>7&#45;&gt;9</title>
<path fill="none" stroke="black" d="M391,-120.86C401.97,-121.64 414.92,-122.57 426.79,-123.41"/>
<polygon fill="black" stroke="black" points="426.65,-126.91 436.87,-124.13 427.15,-119.93 426.65,-126.91"/>
<text text-anchor="middle" x="414" y="-125.8" font-family="Times,serif" font-size="14.00">a</text>
</g>
<!-- 10 -->
<g id="node12" class="node">
<title>10</title>
<ellipse fill="none" stroke="black" cx="464" cy="-72" rx="27" ry="18"/>
<text text-anchor="middle" x="464" y="-68.3" font-family="Times,serif" font-size="14.00">10</text>
</g>
<!-- 7&#45;&gt;10 -->
<g id="edge10" class="edge">
<title>7&#45;&gt;10</title>
<path fill="none" stroke="black" d="M386.26,-108.8C399.66,-102.38 417.17,-93.98 432.08,-86.83"/>
<polygon fill="black" stroke="black" points="433.94,-89.82 441.44,-82.34 430.91,-83.51 433.94,-89.82"/>
<text text-anchor="middle" x="414" y="-99.8" font-family="Times,serif" font-size="14.00">a</text>
</g>
<!-- 2 -->
<g id="node14" class="node">
<title>2</title>
<ellipse fill="none" stroke="black" cx="264" cy="-65" rx="27" ry="18"/>
<text text-anchor="middle" x="264" y="-61.3" font-family="Times,serif" font-size="14.00">2</text>
</g>
<!-- 1&#45;&gt;2 -->
<g id="edge12" class="edge">
<title>1&#45;&gt;2</title>
<path fill="none" stroke="black" d="M191,-65C201.97,-65 214.92,-65 226.79,-65"/>
<polygon fill="black" stroke="black" points="226.87,-68.5 236.87,-65 226.87,-61.5 226.87,-68.5"/>
<text text-anchor="middle" x="214" y="-68.8" font-family="Times,serif" font-size="14.00">b</text>
</g>
<!-- 2&#45;&gt;3 -->
<g id="edge13" class="edge">
<title>2&#45;&gt;3</title>
<path fill="none" stroke="black" d="M289.22,-58.33C301.24,-55.02 315.95,-50.96 329.07,-47.35"/>
<polygon fill="black" stroke="black" points="330,-50.72 338.71,-44.69 328.14,-43.97 330,-50.72"/>
<text text-anchor="middle" x="314" y="-55.8" font-family="Times,serif" font-size="14.00">a</text>
</g>
</g>
</svg>
