<?xml version="1.0" encoding="UTF-8" standalone="no"?>
<!DOCTYPE svg PUBLIC "-//W3C//DTD SVG 1.1//EN"
 "http://www.w3.org/Graphics/SVG/1.1/DTD/svg11.dtd">
<!-- Generated by graphviz version 2.43.0 (0)
 -->
<!-- Title: %3 Pages: 1 -->
<svg width="396pt" height="131pt"
 viewBox="0.00 0.00 396.00 131.00" xmlns="http://www.w3.org/2000/svg" xmlns:xlink="http://www.w3.org/1999/xlink">
<g id="graph0" class="graph" transform="scale(1 1) rotate(0) translate(4 127)">
<title>%3</title>
<polygon fill="white" stroke="transparent" points="-4,4 -4,-127 392,-127 392,4 -4,4"/>
<!-- fictitious -->
<g id="node1" class="node">
<title>fictitious</title>
<ellipse fill="black" stroke="black" cx="0" cy="-37" rx="0" ry="0"/>
</g>
<!-- 0 -->
<g id="node2" class="node">
<title>0</title>
<ellipse fill="none" stroke="black" cx="64" cy="-37" rx="27" ry="18"/>
<text text-anchor="middle" x="64" y="-33.3" font-family="Times,serif" font-size="14.00">0</text>
</g>
<!-- fictitious&#45;&gt;0 -->
<g id="edge1" class="edge">
<title>fictitious&#45;&gt;0</title>
<path fill="none" stroke="black" d="M1.04,-37C1.86,-37 13.73,-37 26.87,-37"/>
<polygon fill="black" stroke="black" points="27,-40.5 37,-37 27,-33.5 27,-40.5"/>
</g>
<!-- 2 -->
<g id="node3" class="node">
<title>2</title>
<ellipse fill="none" stroke="black" cx="163" cy="-72" rx="27" ry="18"/>
<text text-anchor="middle" x="163" y="-68.3" font-family="Times,serif" font-size="14.00">2</text>
</g>
<!-- 0&#45;&gt;2 -->
<g id="edge2" class="edge">
<title>0&#45;&gt;2</title>
<path fill="none" stroke="black" d="M87.99,-45.29C100.34,-49.75 115.78,-55.32 129.36,-60.22"/>
<polygon fill="black" stroke="black" points="128.25,-63.54 138.84,-63.64 130.62,-56.96 128.25,-63.54"/>
<text text-anchor="middle" x="113.5" y="-59.8" font-family="Times,serif" font-size="14.00">ε</text>
</g>
<!-- 1 -->
<g id="node6" class="node">
<title>1</title>
<ellipse fill="red" stroke="black" cx="163" cy="-18" rx="27" ry="18"/>
<text text-anchor="middle" x="163" y="-14.3" font-family="Times,serif" font-size="14.00">1</text>
</g>
<!-- 0&#45;&gt;1 -->
<g id="edge6" class="edge">
<title>0&#45;&gt;1</title>
<path fill="none" stroke="black" d="M89.62,-31.15C95.92,-29.73 102.7,-28.25 109,-27 114.61,-25.89 120.57,-24.79 126.39,-23.77"/>
<polygon fill="black" stroke="black" points="127.34,-27.16 136.61,-22.02 126.16,-20.26 127.34,-27.16"/>
<text text-anchor="middle" x="113.5" y="-30.8" font-family="Times,serif" font-size="14.00">a</text>
</g>
<!-- 2&#45;&gt;2 -->
<g id="edge3" class="edge">
<title>2&#45;&gt;2</title>
<path fill="none" stroke="black" d="M154.43,-89.41C152.83,-99.09 155.69,-108 163,-108 167.57,-108 170.4,-104.52 171.49,-99.54"/>
<polygon fill="black" stroke="black" points="174.99,-99.44 171.57,-89.41 167.99,-99.38 174.99,-99.44"/>
<text text-anchor="middle" x="163" y="-111.8" font-family="Times,serif" font-size="14.00">b</text>
</g>
<!-- 3 -->
<g id="node4" class="node">
<title>3</title>
<ellipse fill="none" stroke="black" cx="263" cy="-72" rx="27" ry="18"/>
<text text-anchor="middle" x="263" y="-68.3" font-family="Times,serif" font-size="14.00">3</text>
</g>
<!-- 2&#45;&gt;3 -->
<g id="edge4" class="edge">
<title>2&#45;&gt;3</title>
<path fill="none" stroke="black" d="M190,-72C200.97,-72 213.92,-72 225.79,-72"/>
<polygon fill="black" stroke="black" points="225.87,-75.5 235.87,-72 225.87,-68.5 225.87,-75.5"/>
<text text-anchor="middle" x="213" y="-75.8" font-family="Times,serif" font-size="14.00">b</text>
</g>
<!-- 4 -->
<g id="node5" class="node">
<title>4</title>
<ellipse fill="red" stroke="black" cx="361" cy="-72" rx="27" ry="18"/>
<text text-anchor="middle" x="361" y="-68.3" font-family="Times,serif" font-size="14.00">4</text>
</g>
<!-- 3&#45;&gt;4 -->
<g id="edge5" class="edge">
<title>3&#45;&gt;4</title>
<path fill="none" stroke="black" d="M290.23,-72C300.5,-72 312.45,-72 323.53,-72"/>
<polygon fill="black" stroke="black" points="323.8,-75.5 333.8,-72 323.8,-68.5 323.8,-75.5"/>
<text text-anchor="middle" x="312" y="-75.8" font-family="Times,serif" font-size="14.00">ε</text>
</g>
</g>
</svg>
