<?xml version="1.0" encoding="UTF-8" standalone="no"?>
<!DOCTYPE svg PUBLIC "-//W3C//DTD SVG 1.1//EN"
 "http://www.w3.org/Graphics/SVG/1.1/DTD/svg11.dtd">
<!-- Generated by graphviz version 2.43.0 (0)
 -->
<!-- Title: %3 Pages: 1 -->
<svg width="352pt" height="118pt"
 viewBox="0.00 0.00 352.00 118.00" xmlns="http://www.w3.org/2000/svg" xmlns:xlink="http://www.w3.org/1999/xlink">
<g id="graph0" class="graph" transform="scale(1 1) rotate(0) translate(4 114)">
<title>%3</title>
<polygon fill="white" stroke="transparent" points="-4,4 -4,-114 348,-114 348,4 -4,4"/>
<!-- fictitious -->
<g id="node1" class="node">
<title>fictitious</title>
<ellipse fill="black" stroke="black" cx="27" cy="-56" rx="0" ry="0"/>
</g>
<!-- 0 -->
<g id="node2" class="node">
<title>0</title>
<ellipse fill="red" stroke="black" cx="118" cy="-56" rx="27" ry="18"/>
<text text-anchor="middle" x="118" y="-52.3" font-family="Times,serif" font-size="14.00">0</text>
</g>
<!-- fictitious&#45;&gt;0 -->
<g id="edge1" class="edge">
<title>fictitious&#45;&gt;0</title>
<path fill="none" stroke="black" d="M28.06,-56C29.56,-56 56.75,-56 80.68,-56"/>
<polygon fill="black" stroke="black" points="81,-59.5 91,-56 81,-52.5 81,-59.5"/>
</g>
<!-- 0&#45;&gt;0 -->
<g id="edge4" class="edge">
<title>0&#45;&gt;0</title>
<path fill="none" stroke="black" d="M110.14,-73.41C108.68,-83.09 111.3,-92 118,-92 122.19,-92 124.78,-88.52 125.78,-83.54"/>
<polygon fill="black" stroke="black" points="129.28,-83.44 125.86,-73.41 122.28,-83.38 129.28,-83.44"/>
<text text-anchor="middle" x="118" y="-95.8" font-family="Times,serif" font-size="14.00">a</text>
</g>
<!-- 1 -->
<g id="node3" class="node">
<title>1</title>
<ellipse fill="none" stroke="black" cx="218" cy="-83" rx="27" ry="18"/>
<text text-anchor="middle" x="218" y="-79.3" font-family="Times,serif" font-size="14.00">1</text>
</g>
<!-- 0&#45;&gt;1 -->
<g id="edge5" class="edge">
<title>0&#45;&gt;1</title>
<path fill="none" stroke="black" d="M141.63,-64.95C148.43,-67.45 155.96,-70.01 163,-72 168.9,-73.66 175.23,-75.18 181.4,-76.53"/>
<polygon fill="black" stroke="black" points="181.04,-80.03 191.54,-78.62 182.45,-73.17 181.04,-80.03"/>
<text text-anchor="middle" x="168" y="-77.8" font-family="Times,serif" font-size="14.00">a</text>
</g>
<!-- 2 -->
<g id="node4" class="node">
<title>2</title>
<ellipse fill="red" stroke="black" cx="218" cy="-18" rx="27" ry="18"/>
<text text-anchor="middle" x="218" y="-14.3" font-family="Times,serif" font-size="14.00">2</text>
</g>
<!-- 0&#45;&gt;2 -->
<g id="edge2" class="edge">
<title>0&#45;&gt;2</title>
<path fill="none" stroke="black" d="M138.65,-43.94C146.08,-39.74 154.75,-35.26 163,-32 169.03,-29.62 175.6,-27.52 182.01,-25.73"/>
<polygon fill="black" stroke="black" points="183.07,-29.07 191.86,-23.16 181.3,-22.3 183.07,-29.07"/>
<text text-anchor="middle" x="168" y="-35.8" font-family="Times,serif" font-size="14.00">b</text>
</g>
<!-- 1&#45;&gt;0 -->
<g id="edge6" class="edge">
<title>1&#45;&gt;0</title>
<path fill="none" stroke="black" d="M201.11,-68.73C193.24,-62.62 183.25,-56.16 173,-53 167.14,-51.19 160.75,-50.5 154.49,-50.48"/>
<polygon fill="black" stroke="black" points="153.99,-47 144.18,-50.98 154.34,-53.99 153.99,-47"/>
<text text-anchor="middle" x="168" y="-56.8" font-family="Times,serif" font-size="14.00">b</text>
</g>
<!-- 3 -->
<g id="node5" class="node">
<title>3</title>
<ellipse fill="red" stroke="black" cx="317" cy="-18" rx="27" ry="18"/>
<text text-anchor="middle" x="317" y="-14.3" font-family="Times,serif" font-size="14.00">3</text>
</g>
<!-- 2&#45;&gt;3 -->
<g id="edge3" class="edge">
<title>2&#45;&gt;3</title>
<path fill="none" stroke="black" d="M245.25,-18C255.82,-18 268.18,-18 279.6,-18"/>
<polygon fill="black" stroke="black" points="279.73,-21.5 289.73,-18 279.73,-14.5 279.73,-21.5"/>
<text text-anchor="middle" x="267.5" y="-21.8" font-family="Times,serif" font-size="14.00">a</text>
</g>
<!-- 4 -->
<g id="node6" class="node">
<title>4</title>
<ellipse fill="none" stroke="black" cx="27" cy="-92" rx="27" ry="18"/>
<text text-anchor="middle" x="27" y="-88.3" font-family="Times,serif" font-size="14.00">4</text>
</g>
</g>
</svg>
