<?xml version="1.0" encoding="UTF-8" standalone="no"?>
<!DOCTYPE svg PUBLIC "-//W3C//DTD SVG 1.1//EN"
 "http://www.w3.org/Graphics/SVG/1.1/DTD/svg11.dtd">
<!-- Generated by graphviz version 2.43.0 (0)
 -->
<!-- Title: %3 Pages: 1 -->
<svg width="741pt" height="251pt"
 viewBox="0.00 0.00 741.00 251.00" xmlns="http://www.w3.org/2000/svg" xmlns:xlink="http://www.w3.org/1999/xlink">
<g id="graph0" class="graph" transform="scale(1 1) rotate(0) translate(4 247)">
<title>%3</title>
<polygon fill="white" stroke="transparent" points="-4,4 -4,-247 737,-247 737,4 -4,4"/>
<!-- fictitious -->
<g id="node1" class="node">
<title>fictitious</title>
<ellipse fill="black" stroke="black" cx="0" cy="-33" rx="0" ry="0"/>
</g>
<!-- 0 -->
<g id="node2" class="node">
<title>0</title>
<ellipse fill="none" stroke="black" cx="64" cy="-33" rx="27" ry="18"/>
<text text-anchor="middle" x="64" y="-29.3" font-family="Times,serif" font-size="14.00">0</text>
</g>
<!-- fictitious&#45;&gt;0 -->
<g id="edge1" class="edge">
<title>fictitious&#45;&gt;0</title>
<path fill="none" stroke="black" d="M1.04,-33C1.86,-33 13.73,-33 26.87,-33"/>
<polygon fill="black" stroke="black" points="27,-36.5 37,-33 27,-29.5 27,-36.5"/>
</g>
<!-- 1 -->
<g id="node3" class="node">
<title>1</title>
<ellipse fill="none" stroke="black" cx="164" cy="-71" rx="27" ry="18"/>
<text text-anchor="middle" x="164" y="-67.3" font-family="Times,serif" font-size="14.00">1</text>
</g>
<!-- 0&#45;&gt;1 -->
<g id="edge11" class="edge">
<title>0&#45;&gt;1</title>
<path fill="none" stroke="black" d="M87.73,-41.81C100.59,-46.8 116.89,-53.12 131.02,-58.6"/>
<polygon fill="black" stroke="black" points="129.8,-61.88 140.39,-62.23 132.34,-55.36 129.8,-61.88"/>
<text text-anchor="middle" x="114" y="-56.8" font-family="Times,serif" font-size="14.00">a</text>
</g>
<!-- 2 -->
<g id="node4" class="node">
<title>2</title>
<ellipse fill="red" stroke="black" cx="507" cy="-71" rx="27" ry="18"/>
<text text-anchor="middle" x="507" y="-67.3" font-family="Times,serif" font-size="14.00">2</text>
</g>
<!-- 0&#45;&gt;2 -->
<g id="edge2" class="edge">
<title>0&#45;&gt;2</title>
<path fill="none" stroke="black" d="M85.36,-21.83C104.73,-12.25 134.99,0 163,0 163,0 163,0 364,0 409.27,0 454.89,-29.22 481.79,-50.17"/>
<polygon fill="black" stroke="black" points="479.85,-53.1 489.84,-56.63 484.23,-47.64 479.85,-53.1"/>
<text text-anchor="middle" x="263" y="-3.8" font-family="Times,serif" font-size="14.00">b</text>
</g>
<!-- 1&#45;&gt;0 -->
<g id="edge12" class="edge">
<title>1&#45;&gt;0</title>
<path fill="none" stroke="black" d="M150.61,-54.99C142.67,-46.08 131.52,-35.84 119,-31 113.23,-28.77 106.84,-27.82 100.54,-27.64"/>
<polygon fill="black" stroke="black" points="100.03,-24.16 90.15,-27.98 100.26,-31.15 100.03,-24.16"/>
<text text-anchor="middle" x="114" y="-34.8" font-family="Times,serif" font-size="14.00">b</text>
</g>
<!-- 3 -->
<g id="node5" class="node">
<title>3</title>
<ellipse fill="none" stroke="black" cx="263" cy="-90" rx="27" ry="18"/>
<text text-anchor="middle" x="263" y="-86.3" font-family="Times,serif" font-size="14.00">3</text>
</g>
<!-- 1&#45;&gt;3 -->
<g id="edge13" class="edge">
<title>1&#45;&gt;3</title>
<path fill="none" stroke="black" d="M190.23,-75.94C201.46,-78.14 214.87,-80.77 227.04,-83.15"/>
<polygon fill="black" stroke="black" points="226.41,-86.59 236.89,-85.08 227.75,-79.73 226.41,-86.59"/>
<text text-anchor="middle" x="213.5" y="-84.8" font-family="Times,serif" font-size="14.00">a</text>
</g>
<!-- 4 -->
<g id="node6" class="node">
<title>4</title>
<ellipse fill="red" stroke="black" cx="607" cy="-136" rx="27" ry="18"/>
<text text-anchor="middle" x="607" y="-132.3" font-family="Times,serif" font-size="14.00">4</text>
</g>
<!-- 2&#45;&gt;4 -->
<g id="edge6" class="edge">
<title>2&#45;&gt;4</title>
<path fill="none" stroke="black" d="M526.9,-83.53C541.54,-93.24 562.03,-106.84 578.5,-117.76"/>
<polygon fill="black" stroke="black" points="576.89,-120.9 587.16,-123.51 580.76,-115.06 576.89,-120.9"/>
<text text-anchor="middle" x="557" y="-108.8" font-family="Times,serif" font-size="14.00">a</text>
</g>
<!-- 5 -->
<g id="node7" class="node">
<title>5</title>
<ellipse fill="none" stroke="black" cx="363" cy="-90" rx="27" ry="18"/>
<text text-anchor="middle" x="363" y="-86.3" font-family="Times,serif" font-size="14.00">5</text>
</g>
<!-- 2&#45;&gt;5 -->
<g id="edge3" class="edge">
<title>2&#45;&gt;5</title>
<path fill="none" stroke="black" d="M479.93,-68.62C460.02,-67.44 432.02,-67.15 408,-72 403.51,-72.91 398.9,-74.27 394.43,-75.84"/>
<polygon fill="black" stroke="black" points="393.02,-72.63 384.98,-79.53 395.56,-79.15 393.02,-72.63"/>
<text text-anchor="middle" x="435" y="-75.8" font-family="Times,serif" font-size="14.00">b</text>
</g>
<!-- 3&#45;&gt;5 -->
<g id="edge14" class="edge">
<title>3&#45;&gt;5</title>
<path fill="none" stroke="black" d="M290,-90C300.97,-90 313.92,-90 325.79,-90"/>
<polygon fill="black" stroke="black" points="325.87,-93.5 335.87,-90 325.87,-86.5 325.87,-93.5"/>
<text text-anchor="middle" x="313" y="-93.8" font-family="Times,serif" font-size="14.00">b</text>
</g>
<!-- 6 -->
<g id="node8" class="node">
<title>6</title>
<ellipse fill="none" stroke="black" cx="435" cy="-177" rx="27" ry="18"/>
<text text-anchor="middle" x="435" y="-173.3" font-family="Times,serif" font-size="14.00">6</text>
</g>
<!-- 3&#45;&gt;6 -->
<g id="edge15" class="edge">
<title>3&#45;&gt;6</title>
<path fill="none" stroke="black" d="M284.85,-100.67C314.67,-115.93 369.68,-144.09 403.92,-161.61"/>
<polygon fill="black" stroke="black" points="402.49,-164.8 412.98,-166.24 405.68,-158.57 402.49,-164.8"/>
<text text-anchor="middle" x="313" y="-120.8" font-family="Times,serif" font-size="14.00">a</text>
</g>
<!-- 4&#45;&gt;5 -->
<g id="edge7" class="edge">
<title>4&#45;&gt;5</title>
<path fill="none" stroke="black" d="M579.87,-135.02C541.51,-133.04 468,-127.16 408,-110 403.31,-108.66 398.47,-106.89 393.81,-104.96"/>
<polygon fill="black" stroke="black" points="395.12,-101.72 384.56,-100.87 392.28,-108.12 395.12,-101.72"/>
<text text-anchor="middle" x="507" y="-134.8" font-family="Times,serif" font-size="14.00">b</text>
</g>
<!-- 7 -->
<g id="node9" class="node">
<title>7</title>
<ellipse fill="red" stroke="black" cx="706" cy="-159" rx="27" ry="18"/>
<text text-anchor="middle" x="706" y="-155.3" font-family="Times,serif" font-size="14.00">7</text>
</g>
<!-- 4&#45;&gt;7 -->
<g id="edge8" class="edge">
<title>4&#45;&gt;7</title>
<path fill="none" stroke="black" d="M632.73,-141.86C644.13,-144.57 657.86,-147.82 670.28,-150.77"/>
<polygon fill="black" stroke="black" points="669.78,-154.25 680.32,-153.15 671.39,-147.43 669.78,-154.25"/>
<text text-anchor="middle" x="656.5" y="-151.8" font-family="Times,serif" font-size="14.00">a</text>
</g>
<!-- 5&#45;&gt;2 -->
<g id="edge4" class="edge">
<title>5&#45;&gt;2</title>
<path fill="none" stroke="black" d="M375.86,-73.63C383.77,-64.19 395.06,-53.18 408,-48 430.28,-39.07 438.69,-42.28 462,-48 467.44,-49.34 472.96,-51.48 478.16,-53.93"/>
<polygon fill="black" stroke="black" points="476.6,-57.06 487.09,-58.56 479.83,-50.85 476.6,-57.06"/>
<text text-anchor="middle" x="435" y="-51.8" font-family="Times,serif" font-size="14.00">b</text>
</g>
<!-- 5&#45;&gt;2 -->
<g id="edge5" class="edge">
<title>5&#45;&gt;2</title>
<path fill="none" stroke="black" d="M390.04,-91.43C409.93,-91.99 437.93,-91.62 462,-87 466.02,-86.23 470.15,-85.14 474.21,-83.9"/>
<polygon fill="black" stroke="black" points="475.67,-87.09 484.01,-80.55 473.41,-80.47 475.67,-87.09"/>
<text text-anchor="middle" x="435" y="-94.8" font-family="Times,serif" font-size="14.00">a</text>
</g>
<!-- 6&#45;&gt;6 -->
<g id="edge17" class="edge">
<title>6&#45;&gt;6</title>
<path fill="none" stroke="black" d="M422.45,-193.29C419.43,-203.39 423.61,-213 435,-213 442.3,-213 446.64,-209.06 448.02,-203.57"/>
<polygon fill="black" stroke="black" points="451.5,-203.12 447.55,-193.29 444.51,-203.44 451.5,-203.12"/>
<text text-anchor="middle" x="435" y="-216.8" font-family="Times,serif" font-size="14.00">a</text>
</g>
<!-- 6&#45;&gt;7 -->
<g id="edge16" class="edge">
<title>6&#45;&gt;7</title>
<path fill="none" stroke="black" d="M462.07,-176.98C504.09,-176.7 589.31,-175.07 661,-167 663.89,-166.67 666.88,-166.27 669.88,-165.82"/>
<polygon fill="black" stroke="black" points="670.66,-169.24 679.96,-164.16 669.52,-162.34 670.66,-169.24"/>
<text text-anchor="middle" x="557" y="-177.8" font-family="Times,serif" font-size="14.00">b</text>
</g>
<!-- 7&#45;&gt;7 -->
<g id="edge9" class="edge">
<title>7&#45;&gt;7</title>
<path fill="none" stroke="black" d="M701.69,-176.78C700.95,-186.31 702.39,-195 706,-195 708.2,-195 709.59,-191.77 710.18,-187.1"/>
<polygon fill="black" stroke="black" points="713.68,-186.83 710.31,-176.78 706.68,-186.74 713.68,-186.83"/>
<text text-anchor="middle" x="706" y="-198.8" font-family="Times,serif" font-size="14.00">b</text>
</g>
<!-- 7&#45;&gt;7 -->
<g id="edge10" class="edge">
<title>7&#45;&gt;7</title>
<path fill="none" stroke="black" d="M698.91,-176.42C694.87,-193.79 697.23,-213 706,-213 713.05,-213 715.96,-200.56 714.72,-186.65"/>
<polygon fill="black" stroke="black" points="718.12,-185.74 713.09,-176.42 711.21,-186.85 718.12,-185.74"/>
<text text-anchor="middle" x="706" y="-216.8" font-family="Times,serif" font-size="14.00">a</text>
</g>
</g>
</svg>
