<?xml version="1.0" encoding="UTF-8" standalone="no"?>
<!DOCTYPE svg PUBLIC "-//W3C//DTD SVG 1.1//EN"
 "http://www.w3.org/Graphics/SVG/1.1/DTD/svg11.dtd">
<!-- Generated by graphviz version 2.43.0 (0)
 -->
<!-- Title: %3 Pages: 1 -->
<svg width="298pt" height="109pt"
 viewBox="0.00 0.00 298.00 109.00" xmlns="http://www.w3.org/2000/svg" xmlns:xlink="http://www.w3.org/1999/xlink">
<g id="graph0" class="graph" transform="scale(1 1) rotate(0) translate(4 105)">
<title>%3</title>
<polygon fill="white" stroke="transparent" points="-4,4 -4,-105 294,-105 294,4 -4,4"/>
<!-- fictitious -->
<g id="node1" class="node">
<title>fictitious</title>
<ellipse fill="black" stroke="black" cx="0" cy="-45" rx="0" ry="0"/>
</g>
<!-- 0 -->
<g id="node2" class="node">
<title>0</title>
<ellipse fill="red" stroke="black" cx="64" cy="-45" rx="27" ry="18"/>
<text text-anchor="middle" x="64" y="-41.3" font-family="Times,serif" font-size="14.00">0</text>
</g>
<!-- fictitious&#45;&gt;0 -->
<g id="edge1" class="edge">
<title>fictitious&#45;&gt;0</title>
<path fill="none" stroke="black" d="M1.04,-45C1.86,-45 13.73,-45 26.87,-45"/>
<polygon fill="black" stroke="black" points="27,-48.5 37,-45 27,-41.5 27,-48.5"/>
</g>
<!-- 0&#45;&gt;0 -->
<g id="edge4" class="edge">
<title>0&#45;&gt;0</title>
<path fill="none" stroke="black" d="M56.14,-62.41C54.68,-72.09 57.3,-81 64,-81 68.19,-81 70.78,-77.52 71.78,-72.54"/>
<polygon fill="black" stroke="black" points="75.28,-72.44 71.86,-62.41 68.28,-72.38 75.28,-72.44"/>
<text text-anchor="middle" x="64" y="-84.8" font-family="Times,serif" font-size="14.00">a</text>
</g>
<!-- 2 -->
<g id="node3" class="node">
<title>2</title>
<ellipse fill="red" stroke="black" cx="164" cy="-83" rx="27" ry="18"/>
<text text-anchor="middle" x="164" y="-79.3" font-family="Times,serif" font-size="14.00">2</text>
</g>
<!-- 0&#45;&gt;2 -->
<g id="edge2" class="edge">
<title>0&#45;&gt;2</title>
<path fill="none" stroke="black" d="M87.73,-53.81C100.59,-58.8 116.89,-65.12 131.02,-70.6"/>
<polygon fill="black" stroke="black" points="129.8,-73.88 140.39,-74.23 132.34,-67.36 129.8,-73.88"/>
<text text-anchor="middle" x="114" y="-68.8" font-family="Times,serif" font-size="14.00">b</text>
</g>
<!-- 1 -->
<g id="node5" class="node">
<title>1</title>
<ellipse fill="none" stroke="black" cx="164" cy="-18" rx="27" ry="18"/>
<text text-anchor="middle" x="164" y="-14.3" font-family="Times,serif" font-size="14.00">1</text>
</g>
<!-- 0&#45;&gt;1 -->
<g id="edge5" class="edge">
<title>0&#45;&gt;1</title>
<path fill="none" stroke="black" d="M89.22,-38.33C101.24,-35.02 115.95,-30.96 129.07,-27.35"/>
<polygon fill="black" stroke="black" points="130,-30.72 138.71,-24.69 128.14,-23.97 130,-30.72"/>
<text text-anchor="middle" x="114" y="-36.8" font-family="Times,serif" font-size="14.00">a</text>
</g>
<!-- 3 -->
<g id="node4" class="node">
<title>3</title>
<ellipse fill="red" stroke="black" cx="263" cy="-83" rx="27" ry="18"/>
<text text-anchor="middle" x="263" y="-79.3" font-family="Times,serif" font-size="14.00">3</text>
</g>
<!-- 2&#45;&gt;3 -->
<g id="edge3" class="edge">
<title>2&#45;&gt;3</title>
<path fill="none" stroke="black" d="M191.25,-83C201.82,-83 214.18,-83 225.6,-83"/>
<polygon fill="black" stroke="black" points="225.73,-86.5 235.73,-83 225.73,-79.5 225.73,-86.5"/>
<text text-anchor="middle" x="213.5" y="-86.8" font-family="Times,serif" font-size="14.00">a</text>
</g>
<!-- 1&#45;&gt;0 -->
<g id="edge6" class="edge">
<title>1&#45;&gt;0</title>
<path fill="none" stroke="black" d="M138.88,-10.98C129.37,-9.32 118.49,-8.84 109,-12 101.53,-14.49 94.3,-18.8 87.94,-23.51"/>
<polygon fill="black" stroke="black" points="85.44,-21.02 79.86,-30.02 89.84,-26.47 85.44,-21.02"/>
<text text-anchor="middle" x="114" y="-15.8" font-family="Times,serif" font-size="14.00">b</text>
</g>
</g>
</svg>
