<?xml version="1.0" encoding="UTF-8" standalone="no"?>
<!DOCTYPE svg PUBLIC "-//W3C//DTD SVG 1.1//EN"
 "http://www.w3.org/Graphics/SVG/1.1/DTD/svg11.dtd">
<!-- Generated by graphviz version 2.43.0 (0)
 -->
<!-- Title: %3 Pages: 1 -->
<svg width="299pt" height="182pt"
 viewBox="0.00 0.00 299.00 182.00" xmlns="http://www.w3.org/2000/svg" xmlns:xlink="http://www.w3.org/1999/xlink">
<g id="graph0" class="graph" transform="scale(1 1) rotate(0) translate(4 178)">
<title>%3</title>
<polygon fill="white" stroke="transparent" points="-4,4 -4,-178 295,-178 295,4 -4,4"/>
<!-- fictitious -->
<g id="node1" class="node">
<title>fictitious</title>
<ellipse fill="black" stroke="black" cx="0" cy="-72" rx="0" ry="0"/>
</g>
<!-- 0 -->
<g id="node2" class="node">
<title>0</title>
<ellipse fill="none" stroke="black" cx="64" cy="-72" rx="27" ry="18"/>
<text text-anchor="middle" x="64" y="-68.3" font-family="Times,serif" font-size="14.00">0</text>
</g>
<!-- fictitious&#45;&gt;0 -->
<g id="edge1" class="edge">
<title>fictitious&#45;&gt;0</title>
<path fill="none" stroke="black" d="M1.04,-72C1.86,-72 13.73,-72 26.87,-72"/>
<polygon fill="black" stroke="black" points="27,-75.5 37,-72 27,-68.5 27,-75.5"/>
</g>
<!-- 2 -->
<g id="node3" class="node">
<title>2</title>
<ellipse fill="none" stroke="black" cx="164" cy="-123" rx="27" ry="18"/>
<text text-anchor="middle" x="164" y="-119.3" font-family="Times,serif" font-size="14.00">2</text>
</g>
<!-- 0&#45;&gt;2 -->
<g id="edge2" class="edge">
<title>0&#45;&gt;2</title>
<path fill="none" stroke="black" d="M85.78,-82.82C99.56,-89.98 117.84,-99.5 133.16,-107.47"/>
<polygon fill="black" stroke="black" points="131.76,-110.69 142.25,-112.2 134.99,-104.48 131.76,-110.69"/>
<text text-anchor="middle" x="114" y="-102.8" font-family="Times,serif" font-size="14.00">b</text>
</g>
<!-- 3 -->
<g id="node4" class="node">
<title>3</title>
<ellipse fill="red" stroke="black" cx="264" cy="-88" rx="27" ry="18"/>
<text text-anchor="middle" x="264" y="-84.3" font-family="Times,serif" font-size="14.00">3</text>
</g>
<!-- 0&#45;&gt;3 -->
<g id="edge5" class="edge">
<title>0&#45;&gt;3</title>
<path fill="none" stroke="black" d="M91.08,-73.67C116.57,-75.34 156.47,-78.09 191,-81 202.69,-81.99 215.43,-83.18 226.91,-84.31"/>
<polygon fill="black" stroke="black" points="226.72,-87.81 237.02,-85.31 227.41,-80.84 226.72,-87.81"/>
<text text-anchor="middle" x="164" y="-84.8" font-family="Times,serif" font-size="14.00">b</text>
</g>
<!-- 1 -->
<g id="node5" class="node">
<title>1</title>
<ellipse fill="red" stroke="black" cx="164" cy="-18" rx="27" ry="18"/>
<text text-anchor="middle" x="164" y="-14.3" font-family="Times,serif" font-size="14.00">1</text>
</g>
<!-- 0&#45;&gt;1 -->
<g id="edge6" class="edge">
<title>0&#45;&gt;1</title>
<path fill="none" stroke="black" d="M83.46,-58.95C91.19,-53.72 100.37,-47.81 109,-43 116.17,-39.01 124.09,-35.08 131.61,-31.57"/>
<polygon fill="black" stroke="black" points="133.18,-34.7 140.82,-27.37 130.27,-28.33 133.18,-34.7"/>
<text text-anchor="middle" x="114" y="-46.8" font-family="Times,serif" font-size="14.00">a</text>
</g>
<!-- 2&#45;&gt;2 -->
<g id="edge3" class="edge">
<title>2&#45;&gt;2</title>
<path fill="none" stroke="black" d="M155.14,-140.04C153.33,-149.86 156.29,-159 164,-159 168.82,-159 171.78,-155.43 172.89,-150.35"/>
<polygon fill="black" stroke="black" points="176.38,-150.03 172.86,-140.04 169.38,-150.05 176.38,-150.03"/>
<text text-anchor="middle" x="164" y="-162.8" font-family="Times,serif" font-size="14.00">b</text>
</g>
<!-- 2&#45;&gt;3 -->
<g id="edge4" class="edge">
<title>2&#45;&gt;3</title>
<path fill="none" stroke="black" d="M188.22,-114.71C200.8,-110.22 216.53,-104.6 230.32,-99.67"/>
<polygon fill="black" stroke="black" points="231.7,-102.89 239.94,-96.23 229.35,-96.3 231.7,-102.89"/>
<text text-anchor="middle" x="214" y="-109.8" font-family="Times,serif" font-size="14.00">b</text>
</g>
</g>
</svg>
