<?xml version="1.0" encoding="UTF-8" standalone="no"?>
<!DOCTYPE svg PUBLIC "-//W3C//DTD SVG 1.1//EN"
 "http://www.w3.org/Graphics/SVG/1.1/DTD/svg11.dtd">
<!-- Generated by graphviz version 2.43.0 (0)
 -->
<!-- Title: %3 Pages: 1 -->
<svg width="299pt" height="159pt"
 viewBox="0.00 0.00 299.00 159.00" xmlns="http://www.w3.org/2000/svg" xmlns:xlink="http://www.w3.org/1999/xlink">
<g id="graph0" class="graph" transform="scale(1 1) rotate(0) translate(4 155)">
<title>%3</title>
<polygon fill="white" stroke="transparent" points="-4,4 -4,-155 295,-155 295,4 -4,4"/>
<!-- fictitious -->
<g id="node1" class="node">
<title>fictitious</title>
<ellipse fill="black" stroke="black" cx="0" cy="-61" rx="0" ry="0"/>
</g>
<!-- 0 -->
<g id="node2" class="node">
<title>0</title>
<ellipse fill="none" stroke="black" cx="64" cy="-61" rx="27" ry="18"/>
<text text-anchor="middle" x="64" y="-57.3" font-family="Times,serif" font-size="14.00">0</text>
</g>
<!-- fictitious&#45;&gt;0 -->
<g id="edge1" class="edge">
<title>fictitious&#45;&gt;0</title>
<path fill="none" stroke="black" d="M1.04,-61C1.86,-61 13.73,-61 26.87,-61"/>
<polygon fill="black" stroke="black" points="27,-64.5 37,-61 27,-57.5 27,-64.5"/>
</g>
<!-- 1 -->
<g id="node3" class="node">
<title>1</title>
<ellipse fill="red" stroke="black" cx="164" cy="-105" rx="27" ry="18"/>
<text text-anchor="middle" x="164" y="-101.3" font-family="Times,serif" font-size="14.00">1</text>
</g>
<!-- 0&#45;&gt;1 -->
<g id="edge3" class="edge">
<title>0&#45;&gt;1</title>
<path fill="none" stroke="black" d="M86.75,-70.77C99.98,-76.7 117.09,-84.39 131.76,-90.97"/>
<polygon fill="black" stroke="black" points="130.42,-94.21 140.97,-95.11 133.28,-87.82 130.42,-94.21"/>
<text text-anchor="middle" x="114" y="-87.8" font-family="Times,serif" font-size="14.00">a</text>
</g>
<!-- 2 -->
<g id="node4" class="node">
<title>2</title>
<ellipse fill="red" stroke="black" cx="164" cy="-18" rx="27" ry="18"/>
<text text-anchor="middle" x="164" y="-14.3" font-family="Times,serif" font-size="14.00">2</text>
</g>
<!-- 0&#45;&gt;2 -->
<g id="edge2" class="edge">
<title>0&#45;&gt;2</title>
<path fill="none" stroke="black" d="M87.24,-51.24C100.27,-45.52 116.94,-38.21 131.33,-31.9"/>
<polygon fill="black" stroke="black" points="133.1,-34.94 140.85,-27.72 130.29,-28.53 133.1,-34.94"/>
<text text-anchor="middle" x="114" y="-43.8" font-family="Times,serif" font-size="14.00">b</text>
</g>
<!-- 3 -->
<g id="node5" class="node">
<title>3</title>
<ellipse fill="none" stroke="black" cx="264" cy="-67" rx="27" ry="18"/>
<text text-anchor="middle" x="264" y="-63.3" font-family="Times,serif" font-size="14.00">3</text>
</g>
<!-- 1&#45;&gt;3 -->
<g id="edge4" class="edge">
<title>1&#45;&gt;3</title>
<path fill="none" stroke="black" d="M187.73,-96.19C200.59,-91.2 216.89,-84.88 231.02,-79.4"/>
<polygon fill="black" stroke="black" points="232.34,-82.64 240.39,-75.77 229.8,-76.12 232.34,-82.64"/>
<text text-anchor="middle" x="214" y="-90.8" font-family="Times,serif" font-size="14.00">b</text>
</g>
<!-- 1&#45;&gt;3 -->
<g id="edge5" class="edge">
<title>1&#45;&gt;3</title>
<path fill="none" stroke="black" d="M179.34,-89.84C189.37,-79.66 202.16,-67.64 209,-65 214.77,-62.77 221.16,-61.82 227.46,-61.64"/>
<polygon fill="black" stroke="black" points="227.74,-65.15 237.85,-61.98 227.97,-58.16 227.74,-65.15"/>
<text text-anchor="middle" x="214" y="-68.8" font-family="Times,serif" font-size="14.00">a</text>
</g>
<!-- 2&#45;&gt;2 -->
<g id="edge6" class="edge">
<title>2&#45;&gt;2</title>
<path fill="none" stroke="black" d="M155.14,-35.04C153.33,-44.86 156.29,-54 164,-54 168.82,-54 171.78,-50.43 172.89,-45.35"/>
<polygon fill="black" stroke="black" points="176.38,-45.03 172.86,-35.04 169.38,-45.05 176.38,-45.03"/>
<text text-anchor="middle" x="164" y="-57.8" font-family="Times,serif" font-size="14.00">b</text>
</g>
<!-- 2&#45;&gt;3 -->
<g id="edge7" class="edge">
<title>2&#45;&gt;3</title>
<path fill="none" stroke="black" d="M186.96,-27.77C196.83,-32.26 208.57,-37.75 219,-43 223.74,-45.38 228.71,-47.99 233.54,-50.59"/>
<polygon fill="black" stroke="black" points="232.1,-53.78 242.55,-55.48 235.44,-47.63 232.1,-53.78"/>
<text text-anchor="middle" x="214" y="-46.8" font-family="Times,serif" font-size="14.00">a</text>
</g>
<!-- 3&#45;&gt;3 -->
<g id="edge8" class="edge">
<title>3&#45;&gt;3</title>
<path fill="none" stroke="black" d="M259.51,-84.78C258.74,-94.31 260.24,-103 264,-103 266.29,-103 267.74,-99.77 268.35,-95.1"/>
<polygon fill="black" stroke="black" points="271.86,-94.83 268.49,-84.78 264.86,-94.73 271.86,-94.83"/>
<text text-anchor="middle" x="264" y="-106.8" font-family="Times,serif" font-size="14.00">b</text>
</g>
<!-- 3&#45;&gt;3 -->
<g id="edge9" class="edge">
<title>3&#45;&gt;3</title>
<path fill="none" stroke="black" d="M256.62,-84.42C252.41,-101.79 254.87,-121 264,-121 271.35,-121 274.38,-108.56 273.09,-94.65"/>
<polygon fill="black" stroke="black" points="276.48,-93.71 271.38,-84.42 269.57,-94.86 276.48,-93.71"/>
<text text-anchor="middle" x="264" y="-124.8" font-family="Times,serif" font-size="14.00">a</text>
</g>
</g>
</svg>
