<?xml version="1.0" encoding="UTF-8" standalone="no"?>
<!DOCTYPE svg PUBLIC "-//W3C//DTD SVG 1.1//EN"
 "http://www.w3.org/Graphics/SVG/1.1/DTD/svg11.dtd">
<!-- Generated by graphviz version 2.43.0 (0)
 -->
<!-- Title: %3 Pages: 1 -->
<svg width="298pt" height="98pt"
 viewBox="0.00 0.00 298.00 98.00" xmlns="http://www.w3.org/2000/svg" xmlns:xlink="http://www.w3.org/1999/xlink">
<g id="graph0" class="graph" transform="scale(1 1) rotate(0) translate(4 94)">
<title>%3</title>
<polygon fill="white" stroke="transparent" points="-4,4 -4,-94 294,-94 294,4 -4,4"/>
<!-- fictitious -->
<g id="node1" class="node">
<title>fictitious</title>
<ellipse fill="black" stroke="black" cx="0" cy="-45" rx="0" ry="0"/>
</g>
<!-- 0 -->
<g id="node2" class="node">
<title>0</title>
<ellipse fill="red" stroke="black" cx="64" cy="-45" rx="27" ry="18"/>
<text text-anchor="middle" x="64" y="-41.3" font-family="Times,serif" font-size="14.00">0</text>
</g>
<!-- fictitious&#45;&gt;0 -->
<g id="edge1" class="edge">
<title>fictitious&#45;&gt;0</title>
<path fill="none" stroke="black" d="M1.04,-45C1.86,-45 13.73,-45 26.87,-45"/>
<polygon fill="black" stroke="black" points="27,-48.5 37,-45 27,-41.5 27,-48.5"/>
</g>
<!-- 2 -->
<g id="node4" class="node">
<title>2</title>
<ellipse fill="none" stroke="black" cx="164" cy="-72" rx="27" ry="18"/>
<text text-anchor="middle" x="164" y="-68.3" font-family="Times,serif" font-size="14.00">2</text>
</g>
<!-- 0&#45;&gt;2 -->
<g id="edge2" class="edge">
<title>0&#45;&gt;2</title>
<path fill="none" stroke="black" d="M89.22,-51.67C101.24,-54.98 115.95,-59.04 129.07,-62.65"/>
<polygon fill="black" stroke="black" points="128.14,-66.03 138.71,-65.31 130,-59.28 128.14,-66.03"/>
<text text-anchor="middle" x="114" y="-62.8" font-family="Times,serif" font-size="14.00">b</text>
</g>
<!-- 1 -->
<g id="node5" class="node">
<title>1</title>
<ellipse fill="none" stroke="black" cx="164" cy="-18" rx="27" ry="18"/>
<text text-anchor="middle" x="164" y="-14.3" font-family="Times,serif" font-size="14.00">1</text>
</g>
<!-- 0&#45;&gt;1 -->
<g id="edge4" class="edge">
<title>0&#45;&gt;1</title>
<path fill="none" stroke="black" d="M89.22,-38.33C101.24,-35.02 115.95,-30.96 129.07,-27.35"/>
<polygon fill="black" stroke="black" points="130,-30.72 138.71,-24.69 128.14,-23.97 130,-30.72"/>
<text text-anchor="middle" x="114" y="-35.8" font-family="Times,serif" font-size="14.00">a</text>
</g>
<!-- 3 -->
<g id="node3" class="node">
<title>3</title>
<ellipse fill="red" stroke="black" cx="263" cy="-72" rx="27" ry="18"/>
<text text-anchor="middle" x="263" y="-68.3" font-family="Times,serif" font-size="14.00">3</text>
</g>
<!-- 2&#45;&gt;3 -->
<g id="edge3" class="edge">
<title>2&#45;&gt;3</title>
<path fill="none" stroke="black" d="M191.25,-72C201.82,-72 214.18,-72 225.6,-72"/>
<polygon fill="black" stroke="black" points="225.73,-75.5 235.73,-72 225.73,-68.5 225.73,-75.5"/>
<text text-anchor="middle" x="213.5" y="-75.8" font-family="Times,serif" font-size="14.00">a</text>
</g>
<!-- 4 -->
<g id="node6" class="node">
<title>4</title>
<ellipse fill="none" stroke="black" cx="263" cy="-18" rx="27" ry="18"/>
<text text-anchor="middle" x="263" y="-14.3" font-family="Times,serif" font-size="14.00">4</text>
</g>
<!-- 1&#45;&gt;4 -->
<g id="edge5" class="edge">
<title>1&#45;&gt;4</title>
<path fill="none" stroke="black" d="M191.25,-18C201.82,-18 214.18,-18 225.6,-18"/>
<polygon fill="black" stroke="black" points="225.73,-21.5 235.73,-18 225.73,-14.5 225.73,-21.5"/>
<text text-anchor="middle" x="213.5" y="-21.8" font-family="Times,serif" font-size="14.00">ε</text>
</g>
</g>
</svg>
