<?xml version="1.0" encoding="UTF-8" standalone="no"?>
<!DOCTYPE svg PUBLIC "-//W3C//DTD SVG 1.1//EN"
 "http://www.w3.org/Graphics/SVG/1.1/DTD/svg11.dtd">
<!-- Generated by graphviz version 2.43.0 (0)
 -->
<!-- Title: %3 Pages: 1 -->
<svg width="399pt" height="279pt"
 viewBox="0.00 0.00 399.00 279.44" xmlns="http://www.w3.org/2000/svg" xmlns:xlink="http://www.w3.org/1999/xlink">
<g id="graph0" class="graph" transform="scale(1 1) rotate(0) translate(4 275.44)">
<title>%3</title>
<polygon fill="white" stroke="transparent" points="-4,4 -4,-275.44 395,-275.44 395,4 -4,4"/>
<!-- fictitious -->
<g id="node1" class="node">
<title>fictitious</title>
<ellipse fill="black" stroke="black" cx="0" cy="-99.44" rx="0" ry="0"/>
</g>
<!-- 0 -->
<g id="node2" class="node">
<title>0</title>
<ellipse fill="red" stroke="black" cx="64" cy="-99.44" rx="27" ry="18"/>
<text text-anchor="middle" x="64" y="-95.74" font-family="Times,serif" font-size="14.00">0</text>
</g>
<!-- fictitious&#45;&gt;0 -->
<g id="edge1" class="edge">
<title>fictitious&#45;&gt;0</title>
<path fill="none" stroke="black" d="M1.04,-99.44C1.86,-99.44 13.73,-99.44 26.87,-99.44"/>
<polygon fill="black" stroke="black" points="27,-102.94 37,-99.44 27,-95.94 27,-102.94"/>
</g>
<!-- 1 -->
<g id="node3" class="node">
<title>1</title>
<ellipse fill="red" stroke="black" cx="164" cy="-141.44" rx="27" ry="18"/>
<text text-anchor="middle" x="164" y="-137.74" font-family="Times,serif" font-size="14.00">1</text>
</g>
<!-- 0&#45;&gt;1 -->
<g id="edge8" class="edge">
<title>0&#45;&gt;1</title>
<path fill="none" stroke="black" d="M87.24,-108.97C100.27,-114.55 116.94,-121.7 131.33,-127.86"/>
<polygon fill="black" stroke="black" points="130.28,-131.22 140.85,-131.94 133.04,-124.79 130.28,-131.22"/>
<text text-anchor="middle" x="114" y="-125.24" font-family="Times,serif" font-size="14.00">a</text>
</g>
<!-- 4 -->
<g id="node6" class="node">
<title>4</title>
<ellipse fill="none" stroke="black" cx="164" cy="-61.44" rx="27" ry="18"/>
<text text-anchor="middle" x="164" y="-57.74" font-family="Times,serif" font-size="14.00">4</text>
</g>
<!-- 0&#45;&gt;4 -->
<g id="edge2" class="edge">
<title>0&#45;&gt;4</title>
<path fill="none" stroke="black" d="M87.73,-90.62C100.59,-85.64 116.89,-79.32 131.02,-73.84"/>
<polygon fill="black" stroke="black" points="132.34,-77.08 140.39,-70.2 129.8,-70.55 132.34,-77.08"/>
<text text-anchor="middle" x="114" y="-85.24" font-family="Times,serif" font-size="14.00">b</text>
</g>
<!-- 0&#45;&gt;4 -->
<g id="edge13" class="edge">
<title>0&#45;&gt;4</title>
<path fill="none" stroke="black" d="M77.39,-83.42C85.33,-74.52 96.48,-64.28 109,-59.44 114.77,-57.2 121.16,-56.26 127.46,-56.08"/>
<polygon fill="black" stroke="black" points="127.74,-59.59 137.85,-56.41 127.97,-52.59 127.74,-59.59"/>
<text text-anchor="middle" x="114" y="-63.24" font-family="Times,serif" font-size="14.00">a</text>
</g>
<!-- 2 -->
<g id="node4" class="node">
<title>2</title>
<ellipse fill="red" stroke="black" cx="264" cy="-220.44" rx="27" ry="18"/>
<text text-anchor="middle" x="264" y="-216.74" font-family="Times,serif" font-size="14.00">2</text>
</g>
<!-- 1&#45;&gt;2 -->
<g id="edge11" class="edge">
<title>1&#45;&gt;2</title>
<path fill="none" stroke="black" d="M182.07,-155.2C197.53,-167.66 220.49,-186.17 238.02,-200.3"/>
<polygon fill="black" stroke="black" points="236.14,-203.28 246.13,-206.83 240.54,-197.83 236.14,-203.28"/>
<text text-anchor="middle" x="214" y="-186.24" font-family="Times,serif" font-size="14.00">a</text>
</g>
<!-- 3 -->
<g id="node5" class="node">
<title>3</title>
<ellipse fill="none" stroke="black" cx="264" cy="-166.44" rx="27" ry="18"/>
<text text-anchor="middle" x="264" y="-162.74" font-family="Times,serif" font-size="14.00">3</text>
</g>
<!-- 1&#45;&gt;3 -->
<g id="edge9" class="edge">
<title>1&#45;&gt;3</title>
<path fill="none" stroke="black" d="M188.61,-149.46C195.17,-151.55 202.33,-153.7 209,-155.44 214.99,-157 221.4,-158.47 227.64,-159.8"/>
<polygon fill="black" stroke="black" points="227.37,-163.32 237.87,-161.9 228.78,-156.46 227.37,-163.32"/>
<text text-anchor="middle" x="214" y="-161.24" font-family="Times,serif" font-size="14.00">b</text>
</g>
<!-- 2&#45;&gt;2 -->
<g id="edge12" class="edge">
<title>2&#45;&gt;2</title>
<path fill="none" stroke="black" d="M255.14,-237.47C253.33,-247.29 256.29,-256.44 264,-256.44 268.82,-256.44 271.78,-252.87 272.89,-247.79"/>
<polygon fill="black" stroke="black" points="276.38,-247.47 272.86,-237.47 269.38,-247.48 276.38,-247.47"/>
<text text-anchor="middle" x="264" y="-260.24" font-family="Times,serif" font-size="14.00">a</text>
</g>
<!-- 3&#45;&gt;1 -->
<g id="edge10" class="edge">
<title>3&#45;&gt;1</title>
<path fill="none" stroke="black" d="M247.11,-152.17C239.24,-146.05 229.25,-139.6 219,-136.44 212.86,-134.54 206.16,-134.01 199.62,-134.26"/>
<polygon fill="black" stroke="black" points="199.24,-130.78 189.61,-135.19 199.89,-137.75 199.24,-130.78"/>
<text text-anchor="middle" x="214" y="-140.24" font-family="Times,serif" font-size="14.00">a</text>
</g>
<!-- 5 -->
<g id="node7" class="node">
<title>5</title>
<ellipse fill="none" stroke="black" cx="264" cy="-112.44" rx="27" ry="18"/>
<text text-anchor="middle" x="264" y="-108.74" font-family="Times,serif" font-size="14.00">5</text>
</g>
<!-- 4&#45;&gt;5 -->
<g id="edge6" class="edge">
<title>4&#45;&gt;5</title>
<path fill="none" stroke="black" d="M185.78,-72.25C199.56,-79.42 217.84,-88.93 233.16,-96.91"/>
<polygon fill="black" stroke="black" points="231.76,-100.12 242.25,-101.64 234.99,-93.92 231.76,-100.12"/>
<text text-anchor="middle" x="214" y="-92.24" font-family="Times,serif" font-size="14.00">a</text>
</g>
<!-- 6 -->
<g id="node8" class="node">
<title>6</title>
<ellipse fill="red" stroke="black" cx="364" cy="-35.44" rx="27" ry="18"/>
<text text-anchor="middle" x="364" y="-31.74" font-family="Times,serif" font-size="14.00">6</text>
</g>
<!-- 4&#45;&gt;6 -->
<g id="edge3" class="edge">
<title>4&#45;&gt;6</title>
<path fill="none" stroke="black" d="M190.89,-58.04C225.82,-53.45 288.18,-45.26 327.48,-40.1"/>
<polygon fill="black" stroke="black" points="327.96,-43.57 337.42,-38.8 327.05,-36.63 327.96,-43.57"/>
<text text-anchor="middle" x="264" y="-56.24" font-family="Times,serif" font-size="14.00">b</text>
</g>
<!-- 5&#45;&gt;6 -->
<g id="edge7" class="edge">
<title>5&#45;&gt;6</title>
<path fill="none" stroke="black" d="M284.2,-100.21C294.72,-93.28 307.86,-84.25 319,-75.44 326.22,-69.73 333.74,-63.15 340.48,-56.99"/>
<polygon fill="black" stroke="black" points="343.03,-59.41 347.98,-50.04 338.27,-54.28 343.03,-59.41"/>
<text text-anchor="middle" x="314" y="-86.24" font-family="Times,serif" font-size="14.00">b</text>
</g>
<!-- 6&#45;&gt;4 -->
<g id="edge4" class="edge">
<title>6&#45;&gt;4</title>
<path fill="none" stroke="black" d="M338.52,-29.46C312.88,-24.19 271.62,-18.47 237,-26.44 221.63,-29.97 205.74,-37.25 192.81,-44.26"/>
<polygon fill="black" stroke="black" points="190.96,-41.29 183.97,-49.25 194.4,-47.38 190.96,-41.29"/>
<text text-anchor="middle" x="264" y="-30.24" font-family="Times,serif" font-size="14.00">b</text>
</g>
<!-- 6&#45;&gt;4 -->
<g id="edge5" class="edge">
<title>6&#45;&gt;4</title>
<path fill="none" stroke="black" d="M343.46,-23.74C318.41,-10.29 273.81,8.37 237,-4.44 217.24,-11.31 198.82,-26.12 185.55,-38.92"/>
<polygon fill="black" stroke="black" points="182.94,-36.59 178.37,-46.15 187.9,-41.52 182.94,-36.59"/>
<text text-anchor="middle" x="264" y="-8.24" font-family="Times,serif" font-size="14.00">a</text>
</g>
</g>
</svg>
