<?xml version="1.0" encoding="UTF-8" standalone="no"?>
<!DOCTYPE svg PUBLIC "-//W3C//DTD SVG 1.1//EN"
 "http://www.w3.org/Graphics/SVG/1.1/DTD/svg11.dtd">
<!-- Generated by graphviz version 2.43.0 (0)
 -->
<!-- Title: %3 Pages: 1 -->
<svg width="741pt" height="289pt"
 viewBox="0.00 0.00 741.00 289.00" xmlns="http://www.w3.org/2000/svg" xmlns:xlink="http://www.w3.org/1999/xlink">
<g id="graph0" class="graph" transform="scale(1 1) rotate(0) translate(4 285)">
<title>%3</title>
<polygon fill="white" stroke="transparent" points="-4,4 -4,-285 737,-285 737,4 -4,4"/>
<!-- fictitious -->
<g id="node1" class="node">
<title>fictitious</title>
<ellipse fill="black" stroke="black" cx="0" cy="-243" rx="0" ry="0"/>
</g>
<!-- 0 -->
<g id="node2" class="node">
<title>0</title>
<ellipse fill="none" stroke="black" cx="64" cy="-243" rx="27" ry="18"/>
<text text-anchor="middle" x="64" y="-239.3" font-family="Times,serif" font-size="14.00">0</text>
</g>
<!-- fictitious&#45;&gt;0 -->
<g id="edge1" class="edge">
<title>fictitious&#45;&gt;0</title>
<path fill="none" stroke="black" d="M1.04,-243C1.86,-243 13.73,-243 26.87,-243"/>
<polygon fill="black" stroke="black" points="27,-246.5 37,-243 27,-239.5 27,-246.5"/>
</g>
<!-- 1 -->
<g id="node3" class="node">
<title>1</title>
<ellipse fill="none" stroke="black" cx="163" cy="-209" rx="27" ry="18"/>
<text text-anchor="middle" x="163" y="-205.3" font-family="Times,serif" font-size="14.00">1</text>
</g>
<!-- 0&#45;&gt;1 -->
<g id="edge11" class="edge">
<title>0&#45;&gt;1</title>
<path fill="none" stroke="black" d="M88.48,-234.77C100.63,-230.51 115.67,-225.24 128.98,-220.58"/>
<polygon fill="black" stroke="black" points="130.46,-223.77 138.74,-217.15 128.14,-217.16 130.46,-223.77"/>
<text text-anchor="middle" x="113.5" y="-230.8" font-family="Times,serif" font-size="14.00">a</text>
</g>
<!-- 2 -->
<g id="node4" class="node">
<title>2</title>
<ellipse fill="red" stroke="black" cx="507" cy="-174" rx="27" ry="18"/>
<text text-anchor="middle" x="507" y="-170.3" font-family="Times,serif" font-size="14.00">2</text>
</g>
<!-- 0&#45;&gt;2 -->
<g id="edge2" class="edge">
<title>0&#45;&gt;2</title>
<path fill="none" stroke="black" d="M87.77,-251.56C107.2,-258.1 136.04,-266 162,-266 162,-266 162,-266 364,-266 414.53,-266 461.27,-224.46 486.5,-197.21"/>
<polygon fill="black" stroke="black" points="489.24,-199.39 493.32,-189.61 484.03,-194.71 489.24,-199.39"/>
<text text-anchor="middle" x="263" y="-269.8" font-family="Times,serif" font-size="14.00">b</text>
</g>
<!-- 3 -->
<g id="node5" class="node">
<title>3</title>
<ellipse fill="none" stroke="black" cx="263" cy="-136" rx="27" ry="18"/>
<text text-anchor="middle" x="263" y="-132.3" font-family="Times,serif" font-size="14.00">3</text>
</g>
<!-- 1&#45;&gt;3 -->
<g id="edge15" class="edge">
<title>1&#45;&gt;3</title>
<path fill="none" stroke="black" d="M181.97,-195.61C197.03,-184.39 218.73,-168.23 235.73,-155.56"/>
<polygon fill="black" stroke="black" points="238.21,-158.09 244.14,-149.3 234.03,-152.47 238.21,-158.09"/>
<text text-anchor="middle" x="213" y="-177.8" font-family="Times,serif" font-size="14.00">a</text>
</g>
<!-- 4 -->
<g id="node6" class="node">
<title>4</title>
<ellipse fill="none" stroke="black" cx="263" cy="-212" rx="27" ry="18"/>
<text text-anchor="middle" x="263" y="-208.3" font-family="Times,serif" font-size="14.00">4</text>
</g>
<!-- 1&#45;&gt;4 -->
<g id="edge12" class="edge">
<title>1&#45;&gt;4</title>
<path fill="none" stroke="black" d="M187.04,-200.63C196.58,-198.12 207.79,-196.41 218,-198 221.7,-198.57 225.52,-199.41 229.29,-200.38"/>
<polygon fill="black" stroke="black" points="228.45,-203.78 239.03,-203.22 230.41,-197.06 228.45,-203.78"/>
<text text-anchor="middle" x="213" y="-201.8" font-family="Times,serif" font-size="14.00">b</text>
</g>
<!-- 5 -->
<g id="node7" class="node">
<title>5</title>
<ellipse fill="red" stroke="black" cx="607" cy="-84" rx="27" ry="18"/>
<text text-anchor="middle" x="607" y="-80.3" font-family="Times,serif" font-size="14.00">5</text>
</g>
<!-- 2&#45;&gt;5 -->
<g id="edge6" class="edge">
<title>2&#45;&gt;5</title>
<path fill="none" stroke="black" d="M523.75,-159.54C539.6,-144.98 564.26,-122.33 582.45,-105.63"/>
<polygon fill="black" stroke="black" points="585.3,-107.77 590.29,-98.42 580.56,-102.61 585.3,-107.77"/>
<text text-anchor="middle" x="557" y="-134.8" font-family="Times,serif" font-size="14.00">a</text>
</g>
<!-- 6 -->
<g id="node8" class="node">
<title>6</title>
<ellipse fill="none" stroke="black" cx="363" cy="-136" rx="27" ry="18"/>
<text text-anchor="middle" x="363" y="-132.3" font-family="Times,serif" font-size="14.00">6</text>
</g>
<!-- 2&#45;&gt;6 -->
<g id="edge3" class="edge">
<title>2&#45;&gt;6</title>
<path fill="none" stroke="black" d="M483.91,-164.02C476.99,-161.15 469.27,-158.21 462,-156 441.67,-149.83 418.39,-144.99 399.62,-141.61"/>
<polygon fill="black" stroke="black" points="400.16,-138.16 389.71,-139.89 398.96,-145.05 400.16,-138.16"/>
<text text-anchor="middle" x="435" y="-159.8" font-family="Times,serif" font-size="14.00">b</text>
</g>
<!-- 3&#45;&gt;6 -->
<g id="edge16" class="edge">
<title>3&#45;&gt;6</title>
<path fill="none" stroke="black" d="M290,-136C300.97,-136 313.92,-136 325.79,-136"/>
<polygon fill="black" stroke="black" points="325.87,-139.5 335.87,-136 325.87,-132.5 325.87,-139.5"/>
<text text-anchor="middle" x="313" y="-139.8" font-family="Times,serif" font-size="14.00">b</text>
</g>
<!-- 7 -->
<g id="node9" class="node">
<title>7</title>
<ellipse fill="none" stroke="black" cx="435" cy="-18" rx="27" ry="18"/>
<text text-anchor="middle" x="435" y="-14.3" font-family="Times,serif" font-size="14.00">7</text>
</g>
<!-- 3&#45;&gt;7 -->
<g id="edge17" class="edge">
<title>3&#45;&gt;7</title>
<path fill="none" stroke="black" d="M282.52,-123.15C312.74,-102.17 372.79,-60.49 407.51,-36.38"/>
<polygon fill="black" stroke="black" points="409.54,-39.24 415.76,-30.66 405.55,-33.49 409.54,-39.24"/>
<text text-anchor="middle" x="313" y="-106.8" font-family="Times,serif" font-size="14.00">a</text>
</g>
<!-- 4&#45;&gt;1 -->
<g id="edge14" class="edge">
<title>4&#45;&gt;1</title>
<path fill="none" stroke="black" d="M235.9,-213.16C227.04,-213.37 217.09,-213.41 208,-213 205.45,-212.88 202.82,-212.73 200.18,-212.55"/>
<polygon fill="black" stroke="black" points="200.27,-209.05 190.03,-211.76 199.73,-216.03 200.27,-209.05"/>
<text text-anchor="middle" x="213" y="-216.8" font-family="Times,serif" font-size="14.00">a</text>
</g>
<!-- 4&#45;&gt;2 -->
<g id="edge13" class="edge">
<title>4&#45;&gt;2</title>
<path fill="none" stroke="black" d="M290.22,-213.33C328.69,-214.55 402.34,-214.07 462,-197 467.15,-195.53 472.39,-193.41 477.38,-191.06"/>
<polygon fill="black" stroke="black" points="479.28,-194.02 486.57,-186.33 476.07,-187.79 479.28,-194.02"/>
<text text-anchor="middle" x="363" y="-216.8" font-family="Times,serif" font-size="14.00">b</text>
</g>
<!-- 5&#45;&gt;6 -->
<g id="edge10" class="edge">
<title>5&#45;&gt;6</title>
<path fill="none" stroke="black" d="M579.78,-85.36C541.31,-87.94 467.65,-95.09 408,-114 403.04,-115.57 397.95,-117.64 393.07,-119.89"/>
<polygon fill="black" stroke="black" points="391.47,-116.77 384.03,-124.32 394.55,-123.06 391.47,-116.77"/>
<text text-anchor="middle" x="507" y="-99.8" font-family="Times,serif" font-size="14.00">b</text>
</g>
<!-- 8 -->
<g id="node10" class="node">
<title>8</title>
<ellipse fill="red" stroke="black" cx="706" cy="-44" rx="27" ry="18"/>
<text text-anchor="middle" x="706" y="-40.3" font-family="Times,serif" font-size="14.00">8</text>
</g>
<!-- 5&#45;&gt;8 -->
<g id="edge7" class="edge">
<title>5&#45;&gt;8</title>
<path fill="none" stroke="black" d="M630.5,-74.72C643.23,-69.47 659.36,-62.82 673.35,-57.05"/>
<polygon fill="black" stroke="black" points="674.71,-60.28 682.62,-53.23 672.05,-53.8 674.71,-60.28"/>
<text text-anchor="middle" x="656.5" y="-68.8" font-family="Times,serif" font-size="14.00">a</text>
</g>
<!-- 6&#45;&gt;2 -->
<g id="edge4" class="edge">
<title>6&#45;&gt;2</title>
<path fill="none" stroke="black" d="M377.97,-151C385.96,-158.49 396.64,-166.84 408,-171 427.69,-178.22 451.12,-179.18 470.14,-178.24"/>
<polygon fill="black" stroke="black" points="470.46,-181.73 480.19,-177.55 469.98,-174.74 470.46,-181.73"/>
<text text-anchor="middle" x="435" y="-181.8" font-family="Times,serif" font-size="14.00">b</text>
</g>
<!-- 6&#45;&gt;2 -->
<g id="edge5" class="edge">
<title>6&#45;&gt;2</title>
<path fill="none" stroke="black" d="M386.42,-126.76C406.97,-119.76 437.79,-113.06 462,-124 473.57,-129.23 483.31,-139.18 490.66,-148.83"/>
<polygon fill="black" stroke="black" points="487.88,-150.95 496.5,-157.11 493.6,-146.92 487.88,-150.95"/>
<text text-anchor="middle" x="435" y="-127.8" font-family="Times,serif" font-size="14.00">a</text>
</g>
<!-- 7&#45;&gt;7 -->
<g id="edge19" class="edge">
<title>7&#45;&gt;7</title>
<path fill="none" stroke="black" d="M422.45,-34.29C419.43,-44.39 423.61,-54 435,-54 442.3,-54 446.64,-50.06 448.02,-44.57"/>
<polygon fill="black" stroke="black" points="451.5,-44.12 447.55,-34.29 444.51,-44.44 451.5,-44.12"/>
<text text-anchor="middle" x="435" y="-57.8" font-family="Times,serif" font-size="14.00">a</text>
</g>
<!-- 7&#45;&gt;8 -->
<g id="edge18" class="edge">
<title>7&#45;&gt;8</title>
<path fill="none" stroke="black" d="M461.79,-20.49C509.97,-25.15 613.74,-35.18 668.87,-40.51"/>
<polygon fill="black" stroke="black" points="668.6,-44 678.89,-41.48 669.27,-37.03 668.6,-44"/>
<text text-anchor="middle" x="557" y="-32.8" font-family="Times,serif" font-size="14.00">b</text>
</g>
<!-- 8&#45;&gt;8 -->
<g id="edge8" class="edge">
<title>8&#45;&gt;8</title>
<path fill="none" stroke="black" d="M701.69,-61.78C700.95,-71.31 702.39,-80 706,-80 708.2,-80 709.59,-76.77 710.18,-72.1"/>
<polygon fill="black" stroke="black" points="713.68,-71.83 710.31,-61.78 706.68,-71.74 713.68,-71.83"/>
<text text-anchor="middle" x="706" y="-83.8" font-family="Times,serif" font-size="14.00">b</text>
</g>
<!-- 8&#45;&gt;8 -->
<g id="edge9" class="edge">
<title>8&#45;&gt;8</title>
<path fill="none" stroke="black" d="M698.91,-61.42C694.87,-78.79 697.23,-98 706,-98 713.05,-98 715.96,-85.56 714.72,-71.65"/>
<polygon fill="black" stroke="black" points="718.12,-70.74 713.09,-61.42 711.21,-71.85 718.12,-70.74"/>
<text text-anchor="middle" x="706" y="-101.8" font-family="Times,serif" font-size="14.00">a</text>
</g>
</g>
</svg>
